<svg width="184" height="40" viewBox="0 0 184 40" fill="none" xmlns="http://www.w3.org/2000/svg">
<rect width="40" height="40" rx="10" fill="#268DD1"/>
<path d="M7.02273 32V8.72727H11.9432V27.9432H21.9205V32H7.02273ZM16.2664 12.7841V8.72727H35.38V12.7841H28.255V32H23.3914V12.7841H16.2664Z" fill="white"/>
<path d="M44.3636 32V8.72727H45.7841V30.6818H57.1477V32H44.3636ZM60.0232 32V14.5455H61.3982V32H60.0232ZM60.7164 11.4545C60.4133 11.4545 60.1482 11.3485 59.9209 11.1364C59.7012 10.9242 59.5914 10.6667 59.5914 10.3636C59.5914 10.0606 59.7012 9.80303 59.9209 9.59091C60.1406 9.37879 60.4058 9.27273 60.7164 9.27273C61.0194 9.27273 61.2808 9.37879 61.5005 9.59091C61.7277 9.80303 61.8414 10.0606 61.8414 10.3636C61.8414 10.6667 61.7315 10.9242 61.5118 11.1364C61.2921 11.3485 61.027 11.4545 60.7164 11.4545ZM71.4555 14.5455V15.7841H63.8305V14.5455H71.4555ZM66.41 10.3636H67.785V27.875C67.785 28.5871 67.9214 29.1705 68.1941 29.625C68.4744 30.072 68.838 30.4053 69.285 30.625C69.7395 30.8371 70.2244 30.9432 70.7395 30.9432C70.9895 30.9432 71.2055 30.9242 71.3873 30.8864C71.5767 30.8485 71.7547 30.7992 71.9214 30.7386L72.2623 32C72.0502 32.0758 71.8153 32.1402 71.5577 32.1932C71.3002 32.2538 70.9971 32.2841 70.6486 32.2841C69.9214 32.2841 69.232 32.1212 68.5805 31.7955C67.9365 31.4697 67.4138 30.9962 67.0123 30.375C66.6108 29.7538 66.41 29.0038 66.41 28.125V10.3636ZM81.2968 32.3636C79.7211 32.3636 78.3498 31.9735 77.1832 31.1932C76.0165 30.4129 75.115 29.3447 74.4786 27.9886C73.8423 26.6326 73.5241 25.0871 73.5241 23.3523C73.5241 21.6098 73.8423 20.0568 74.4786 18.6932C75.1226 17.3295 76.0052 16.2538 77.1264 15.4659C78.2476 14.678 79.5279 14.2841 80.9673 14.2841C81.9445 14.2841 82.8688 14.4811 83.74 14.875C84.6188 15.2614 85.3915 15.822 86.0582 16.5568C86.7324 17.2917 87.2589 18.178 87.6377 19.2159C88.0241 20.2538 88.2173 21.4205 88.2173 22.7159V23.5795H74.3991V22.3182H86.8309C86.8309 21.053 86.5733 19.9129 86.0582 18.8977C85.543 17.8826 84.8423 17.0758 83.9559 16.4773C83.0695 15.8788 82.0733 15.5795 80.9673 15.5795C79.8082 15.5795 78.7741 15.9053 77.865 16.5568C76.9635 17.2008 76.2476 18.072 75.7173 19.1705C75.1945 20.2689 74.9218 21.4962 74.8991 22.8523V23.4205C74.8991 24.875 75.1529 26.1818 75.6605 27.3409C76.1756 28.4924 76.9105 29.4053 77.865 30.0795C78.8195 30.7462 79.9635 31.0795 81.2968 31.0795C82.2514 31.0795 83.0658 30.9205 83.74 30.6023C84.4218 30.2765 84.9786 29.8826 85.4105 29.4205C85.8423 28.9583 86.168 28.5114 86.3877 28.0795L87.6491 28.5909C87.3839 29.1742 86.9711 29.7576 86.4105 30.3409C85.8574 30.9167 85.1529 31.3977 84.2968 31.7841C83.4483 32.1705 82.4483 32.3636 81.2968 32.3636Z" fill="#E2ECFF"/>
<path d="M88.4091 11.75V8.72727H106.42V11.75H99.1591V32H95.6591V11.75H88.4091ZM106.395 32V14.5455H109.679V17.3182H109.861C110.179 16.3788 110.74 15.6402 111.543 15.1023C112.354 14.5568 113.27 14.2841 114.293 14.2841C114.505 14.2841 114.755 14.2917 115.043 14.3068C115.339 14.322 115.57 14.3409 115.736 14.3636V17.6136C115.6 17.5758 115.357 17.5341 115.009 17.4886C114.66 17.4356 114.312 17.4091 113.964 17.4091C113.16 17.4091 112.445 17.5795 111.816 17.9205C111.195 18.2538 110.702 18.7197 110.339 19.3182C109.975 19.9091 109.793 20.5833 109.793 21.3409V32H106.395ZM121.68 32.3864C120.574 32.3864 119.574 32.1818 118.68 31.7727C117.786 31.3561 117.078 30.7538 116.555 29.9659C116.04 29.178 115.782 28.2121 115.782 27.0682C115.782 26.0833 115.972 25.2727 116.35 24.6364C116.729 24 117.24 23.4962 117.884 23.125C118.528 22.7538 119.248 22.4735 120.044 22.2841C120.839 22.0947 121.65 21.9508 122.475 21.8523C123.521 21.7311 124.369 21.6326 125.021 21.5568C125.672 21.4735 126.146 21.3409 126.441 21.1591C126.737 20.9773 126.884 20.6818 126.884 20.2727V20.1932C126.884 19.2008 126.604 18.4318 126.044 17.8864C125.49 17.3409 124.665 17.0682 123.566 17.0682C122.422 17.0682 121.521 17.322 120.862 17.8295C120.21 18.3295 119.759 18.8864 119.509 19.5L116.316 18.7727C116.695 17.7121 117.248 16.8561 117.975 16.2045C118.71 15.5455 119.555 15.0682 120.509 14.7727C121.464 14.4697 122.468 14.3182 123.521 14.3182C124.218 14.3182 124.956 14.4015 125.737 14.5682C126.525 14.7273 127.259 15.0227 127.941 15.4545C128.631 15.8864 129.195 16.5038 129.634 17.3068C130.074 18.1023 130.294 19.1364 130.294 20.4091V32H126.975V29.6136H126.839C126.619 30.053 126.29 30.4848 125.85 30.9091C125.411 31.3333 124.847 31.6856 124.157 31.9659C123.468 32.2462 122.642 32.3864 121.68 32.3864ZM122.419 29.6591C123.358 29.6591 124.161 29.4735 124.828 29.1023C125.502 28.7311 126.013 28.2462 126.362 27.6477C126.718 27.0417 126.896 26.3939 126.896 25.7045V23.4545C126.775 23.5758 126.54 23.6894 126.191 23.7955C125.85 23.8939 125.46 23.9811 125.021 24.0568C124.581 24.125 124.153 24.1894 123.737 24.25C123.32 24.303 122.972 24.3485 122.691 24.3864C122.032 24.4697 121.43 24.6098 120.884 24.8068C120.347 25.0038 119.915 25.2879 119.589 25.6591C119.271 26.0227 119.112 26.5076 119.112 27.1136C119.112 27.9545 119.422 28.5909 120.044 29.0227C120.665 29.447 121.456 29.6591 122.419 29.6591ZM132.899 32V14.5455H136.297V32H132.899ZM134.615 11.8523C134.024 11.8523 133.517 11.6553 133.092 11.2614C132.676 10.8598 132.467 10.3826 132.467 9.82954C132.467 9.26894 132.676 8.79167 133.092 8.39773C133.517 7.99621 134.024 7.79545 134.615 7.79545C135.206 7.79545 135.71 7.99621 136.126 8.39773C136.551 8.79167 136.763 9.26894 136.763 9.82954C136.763 10.3826 136.551 10.8598 136.126 11.2614C135.71 11.6553 135.206 11.8523 134.615 11.8523ZM142.346 21.6364V32H138.948V14.5455H142.209V17.3864H142.425C142.827 16.4621 143.455 15.7197 144.311 15.1591C145.175 14.5985 146.262 14.3182 147.573 14.3182C148.762 14.3182 149.804 14.5682 150.698 15.0682C151.592 15.5606 152.285 16.2955 152.777 17.2727C153.27 18.25 153.516 19.4583 153.516 20.8977V32H150.118V21.3068C150.118 20.0417 149.789 19.053 149.13 18.3409C148.471 17.6212 147.565 17.2614 146.414 17.2614C145.626 17.2614 144.925 17.4318 144.311 17.7727C143.705 18.1136 143.224 18.6136 142.868 19.2727C142.52 19.9242 142.346 20.7121 142.346 21.6364ZM163.676 32.3523C161.956 32.3523 160.475 31.9848 159.232 31.25C157.998 30.5076 157.043 29.4659 156.369 28.125C155.702 26.7765 155.369 25.197 155.369 23.3864C155.369 21.5985 155.702 20.0227 156.369 18.6591C157.043 17.2955 157.982 16.2311 159.187 15.4659C160.399 14.7008 161.816 14.3182 163.437 14.3182C164.422 14.3182 165.376 14.4811 166.301 14.8068C167.225 15.1326 168.054 15.6439 168.789 16.3409C169.524 17.0379 170.104 17.9432 170.528 19.0568C170.952 20.1629 171.164 21.5076 171.164 23.0909V24.2955H157.289V21.75H167.835C167.835 20.8561 167.653 20.0644 167.289 19.375C166.926 18.678 166.414 18.1288 165.755 17.7273C165.104 17.3258 164.338 17.125 163.46 17.125C162.505 17.125 161.672 17.3598 160.96 17.8295C160.255 18.2917 159.71 18.8977 159.323 19.6477C158.945 20.3902 158.755 21.197 158.755 22.0682V24.0568C158.755 25.2235 158.96 26.2159 159.369 27.0341C159.785 27.8523 160.365 28.4773 161.107 28.9091C161.85 29.3333 162.717 29.5455 163.71 29.5455C164.354 29.5455 164.941 29.4545 165.471 29.2727C166.001 29.0833 166.46 28.803 166.846 28.4318C167.232 28.0606 167.528 27.6023 167.732 27.0568L170.948 27.6364C170.691 28.5833 170.229 29.4129 169.562 30.125C168.903 30.8295 168.073 31.3788 167.073 31.7727C166.081 32.1591 164.948 32.3523 163.676 32.3523ZM173.014 32V14.5455H176.298V17.3182H176.48C176.798 16.3788 177.359 15.6402 178.162 15.1023C178.972 14.5568 179.889 14.2841 180.912 14.2841C181.124 14.2841 181.374 14.2917 181.662 14.3068C181.957 14.322 182.188 14.3409 182.355 14.3636V17.6136C182.219 17.5758 181.976 17.5341 181.628 17.4886C181.279 17.4356 180.931 17.4091 180.582 17.4091C179.779 17.4091 179.063 17.5795 178.435 17.9205C177.813 18.2538 177.321 18.7197 176.957 19.3182C176.594 19.9091 176.412 20.5833 176.412 21.3409V32H173.014Z" fill="url(#paint0_linear_1_10)"/>
<defs>
<linearGradient id="paint0_linear_1_10" x1="92" y1="24" x2="165.5" y2="29.5" gradientUnits="userSpaceOnUse">
<stop stop-color="#2A2DAF"/>
<stop offset="1" stop-color="#B2CAF6"/>
</linearGradient>
</defs>
</svg>
